<svg xmlns="http://www.w3.org/2000/svg" xmlns:xlink="http://www.w3.org/1999/xlink" width="800" height="600" preserveAspectRatio="xMidYMid meet" version="1.0" viewBox="0 0 600 450" zoomAndPan="magnify"><defs><clipPath id="id2"><path d="M 164 65.296875 L 400.828125 65.296875 L 400.828125 338.296875 L 164 338.296875 Z M 164 65.296875" clip-rule="nonzero"/></clipPath></defs><g clip-path="url(#id2)"><path fill="#F7941E" fill-opacity="1" fill-rule="nonzero" d="M 164.097656 133.546875 L 282.328125 65.296875 L 400.558594 133.546875 L 400.558594 270.046875 L 282.328125 338.296875 L 164.097656 270.046875 L 164.097656 133.546875"/></g><g fill="#FFF" fill-opacity="1"><g><g><path d="M 61.796875 -208.046875 C 63.597656 -208.953125 65.648438 -209.550781 67.953125 -209.84375 C 70.253906 -210.144531 71.851562 -210.144531 72.75 -209.84375 C 73.644531 -209.550781 75.492188 -209.003906 78.296875 -208.203125 C 82.097656 -207.398438 85.5 -206.347656 88.5 -205.046875 C 91.5 -203.742188 92.898438 -202.695312 92.703125 -201.90625 C 92.703125 -201.101562 92.898438 -200.5 93.296875 -200.09375 C 93.898438 -199.695312 94.25 -198.898438 94.34375 -197.703125 C 94.445312 -196.503906 94.25 -195.65625 93.75 -195.15625 C 93.25 -194.65625 93 -193.90625 93 -192.90625 L 92.703125 -189.90625 C 92.703125 -188.695312 92.300781 -187.941406 91.5 -187.640625 C 90.695312 -187.347656 88.296875 -186.703125 84.296875 -185.703125 C 78.898438 -184.296875 72.703125 -182.59375 65.703125 -180.59375 C 53.097656 -176.59375 42.796875 -175.09375 34.796875 -176.09375 C 29.398438 -176.695312 25.5 -177.648438 23.09375 -178.953125 C 20.695312 -180.253906 19.347656 -180.703125 19.046875 -180.296875 C 18.742188 -179.898438 19.394531 -178.203125 21 -175.203125 C 23.394531 -171.203125 25.039062 -167.148438 25.9375 -163.046875 C 26.84375 -158.953125 27.5 -152.601562 27.90625 -144 C 28.300781 -133.601562 28.695312 -128.300781 29.09375 -128.09375 C 30.695312 -126.894531 38.25 -126.84375 51.75 -127.9375 C 65.25 -129.039062 79.695312 -130.59375 95.09375 -132.59375 C 98.09375 -133 99.742188 -132.953125 100.046875 -132.453125 C 100.347656 -131.953125 101.800781 -131.800781 104.40625 -132 C 107.800781 -132 110.046875 -131.847656 111.140625 -131.546875 C 112.242188 -131.242188 112.992188 -130.441406 113.390625 -129.140625 C 113.796875 -127.847656 113.945312 -126.847656 113.84375 -126.140625 C 113.75 -125.441406 112.898438 -124.394531 111.296875 -123 L 109.5 -120.90625 L 111.59375 -119.09375 C 112.800781 -118.09375 112.800781 -117.492188 111.59375 -117.296875 C 111.195312 -117.097656 110.300781 -116.898438 108.90625 -116.703125 C 104.5 -115.703125 93.097656 -114.203125 74.703125 -112.203125 C 68.296875 -111.398438 60.492188 -110.945312 51.296875 -110.84375 C 42.097656 -110.75 36.597656 -111.101562 34.796875 -111.90625 C 32.203125 -112.695312 30.550781 -112.789062 29.84375 -112.1875 C 29.144531 -111.59375 28.695312 -109.796875 28.5 -106.796875 C 28.300781 -102.992188 28.097656 -94.539062 27.890625 -81.4375 C 27.691406 -68.34375 27.296875 -59.597656 26.703125 -55.203125 L 26.40625 -48.90625 L 33 -48.296875 C 37.394531 -47.898438 43.695312 -47.898438 51.90625 -48.296875 L 64.796875 -48.90625 L 64.796875 -51.296875 C 64.796875 -52.898438 64.195312 -55.300781 63 -58.5 C 61.800781 -61.695312 61.398438 -63.394531 61.796875 -63.59375 L 63 -61.5 C 64 -58.695312 66.097656 -56.394531 69.296875 -54.59375 C 72.492188 -53.195312 74.195312 -52.800781 74.40625 -53.40625 C 74.40625 -54.601562 74.800781 -55.300781 75.59375 -55.5 C 76.394531 -55.695312 77 -55.394531 77.40625 -54.59375 C 78 -53.59375 79.242188 -52.644531 81.140625 -51.75 C 83.046875 -50.851562 84.800781 -50.40625 86.40625 -50.40625 C 88 -50.40625 88.945312 -50.300781 89.25 -50.09375 C 89.550781 -49.894531 89.601562 -49.296875 89.40625 -48.296875 C 89.40625 -47.492188 89.453125 -46.992188 89.546875 -46.796875 C 89.648438 -46.597656 89.898438 -46.597656 90.296875 -46.796875 C 90.703125 -46.796875 91.050781 -46.742188 91.34375 -46.640625 C 91.644531 -46.546875 91.894531 -46.347656 92.09375 -46.046875 C 92.300781 -45.742188 92.40625 -45.289062 92.40625 -44.6875 C 92.40625 -44.09375 92.300781 -43.296875 92.09375 -42.296875 C 91.894531 -40.296875 92.097656 -38.695312 92.703125 -37.5 C 93.296875 -36.101562 93.34375 -35.003906 92.84375 -34.203125 C 92.34375 -33.398438 90.894531 -32.695312 88.5 -32.09375 C 81.101562 -30.300781 64.703125 -29.003906 39.296875 -28.203125 C 27.898438 -27.796875 21 -28.09375 18.59375 -29.09375 C 14.394531 -30.695312 11.195312 -34.695312 9 -41.09375 C 8.195312 -43.09375 7.445312 -44.539062 6.75 -45.4375 C 6.050781 -46.34375 5.25 -48.195312 4.34375 -51 C 3.445312 -53.800781 3 -55.898438 3 -57.296875 C 3 -60.492188 4.195312 -63.394531 6.59375 -66 C 7.394531 -67.195312 8 -69.894531 8.40625 -74.09375 C 9 -78.695312 9.34375 -93 9.4375 -117 C 9.539062 -141 9.394531 -156.300781 9 -162.90625 C 8.394531 -170.5 8.039062 -176.796875 7.9375 -181.796875 C 7.84375 -186.796875 7.445312 -189.695312 6.75 -190.5 C 6.050781 -191.300781 5.601562 -192.300781 5.40625 -193.5 C 5.195312 -194.300781 5.84375 -194.953125 7.34375 -195.453125 C 8.84375 -195.953125 12.59375 -196.5 18.59375 -197.09375 C 23.59375 -197.894531 29.742188 -199.242188 37.046875 -201.140625 C 44.347656 -203.046875 49.847656 -204.445312 53.546875 -205.34375 C 57.242188 -206.25 59.992188 -207.148438 61.796875 -208.046875 Z M 61.796875 -208.046875" transform="translate(223.657044, 309.831352)"/></g></g></g></svg>